<svg width="48" height="48" viewBox="0 0 48 48" fill="none" xmlns="http://www.w3.org/2000/svg">
<g clip-path="url(#clip0_16_1460)">
<g filter="url(#filter0_d_16_1460)">
<path d="M24.225 29.4188C26.1085 27.8343 27.4592 25.7089 28.094 23.3308C28.7288 20.9528 28.617 18.437 27.7737 16.1246C26.9304 13.8122 25.3965 11.8151 23.3798 10.4039C21.3631 8.99281 18.9613 8.23593 16.5 8.23593C14.0386 8.23593 11.6368 8.99281 9.62016 10.4039C7.60349 11.8151 6.06954 13.8122 5.22625 16.1246C4.38297 18.437 4.27115 20.9528 4.90595 23.3308C5.54075 25.7089 6.89147 27.8343 8.77498 29.4188C5.72031 30.8011 3.09171 32.9765 1.16248 35.7188C0.82008 36.2063 0.685035 36.8098 0.78697 37.3968C0.888905 37.9838 1.2195 38.5064 1.70623 38.85C2.08358 39.1197 2.53616 39.264 2.99998 39.2625C3.36075 39.2635 3.7164 39.1771 4.03643 39.0105C4.35646 38.844 4.63133 38.6023 4.83748 38.3063C6.15208 36.4339 7.89816 34.9056 9.92811 33.8505C11.9581 32.7954 14.2122 32.2446 16.5 32.2446C18.7878 32.2446 21.0419 32.7954 23.0719 33.8505C25.1018 34.9056 26.8479 36.4339 28.1625 38.3063C28.3255 38.5638 28.5391 38.7856 28.7904 38.9581C29.0417 39.1307 29.3254 39.2503 29.6243 39.3099C29.9233 39.3694 30.2312 39.3676 30.5294 39.3045C30.8276 39.2414 31.1099 39.1184 31.3592 38.9429C31.6084 38.7675 31.8194 38.5432 31.9793 38.2837C32.1392 38.0242 32.2448 37.7349 32.2895 37.4334C32.3342 37.1319 32.3172 36.8244 32.2395 36.5297C32.1618 36.2349 32.025 35.959 31.8375 35.7188C29.9083 32.9765 27.2797 30.8011 24.225 29.4188ZM8.99998 20.25C8.99998 18.7667 9.43985 17.3166 10.264 16.0832C11.0881 14.8499 12.2594 13.8886 13.6299 13.3209C15.0003 12.7533 16.5083 12.6047 17.9632 12.8941C19.418 13.1835 20.7544 13.8978 21.8033 14.9467C22.8522 15.9956 23.5665 17.332 23.8559 18.7868C24.1453 20.2417 23.9967 21.7497 23.4291 23.1201C22.8614 24.4906 21.9001 25.6619 20.6668 26.486C19.4334 27.3101 17.9833 27.75 16.5 27.75C14.5109 27.75 12.6032 26.9598 11.1967 25.5533C9.79016 24.1468 8.99998 22.2391 8.99998 20.25ZM46.575 38.85C46.1976 39.1197 45.7451 39.264 45.2812 39.2625C44.921 39.2604 44.5665 39.1726 44.247 39.0063C43.9275 38.8401 43.6521 38.6001 43.4437 38.3063C42.1263 36.4372 40.3795 34.9116 38.3501 33.8577C36.3207 32.8039 34.068 32.2525 31.7812 32.25C31.1845 32.25 30.6122 32.013 30.1902 31.591C29.7683 31.169 29.5312 30.5967 29.5312 30C29.5312 29.4033 29.7683 28.831 30.1902 28.409C30.6122 27.9871 31.1845 27.75 31.7812 27.75C33.7704 27.75 35.678 26.9598 37.0845 25.5533C38.4911 24.1468 39.2812 22.2391 39.2812 20.25C39.2812 18.2609 38.4911 16.3532 37.0845 14.9467C35.678 13.5402 33.7704 12.75 31.7812 12.75C31.0964 12.7487 30.4148 12.8434 29.7562 13.0313C29.4703 13.1166 29.1702 13.1441 28.8734 13.1123C28.5767 13.0806 28.2893 12.9901 28.0279 12.8461C27.7664 12.7022 27.5363 12.5077 27.3507 12.2739C27.1652 12.0402 27.028 11.7719 26.9472 11.4846C26.8664 11.1973 26.8435 10.8968 26.8799 10.6006C26.9163 10.3044 27.0113 10.0184 27.1593 9.75931C27.3073 9.50016 27.5053 9.27305 27.742 9.09119C27.9786 8.90933 28.249 8.77636 28.5375 8.70001C29.5925 8.39965 30.6843 8.24819 31.7812 8.25001C34.2442 8.24286 36.6496 8.99495 38.6698 10.4039C40.69 11.8128 42.2269 13.8101 43.0713 16.1239C43.9156 18.4377 44.0264 20.9554 43.3884 23.3344C42.7505 25.7133 41.3949 27.8379 39.5062 29.4188C42.5609 30.8011 45.1895 32.9765 47.1187 35.7188C47.2907 35.9593 47.4132 36.2317 47.479 36.52C47.5447 36.8083 47.5526 37.1068 47.502 37.3981C47.4514 37.6895 47.3434 37.9679 47.1842 38.2171C47.0251 38.4664 46.818 38.6815 46.575 38.85Z" fill="#4CAF4F"/>
<path d="M16.4999 8.73593C18.8587 8.73593 21.161 9.46172 23.0936 10.8141C25.0259 12.1663 26.4955 14.0799 27.3036 16.2955C28.1117 18.5115 28.2195 20.9228 27.6112 23.2018C27.0029 25.4806 25.7081 27.5173 23.9032 29.0357L23.2958 29.5475L24.0184 29.8746C26.9917 31.2201 29.5508 33.3372 31.4286 36.0064L31.4354 36.0162L31.4432 36.026C31.589 36.2128 31.6953 36.4277 31.7557 36.6568C31.8162 36.8861 31.8296 37.1255 31.7948 37.36C31.76 37.5944 31.6779 37.8193 31.5536 38.0211C31.4292 38.2229 31.265 38.3973 31.0712 38.5338C30.8773 38.6703 30.6576 38.766 30.4257 38.815C30.1938 38.864 29.954 38.8662 29.7216 38.8199C29.4892 38.7736 29.2685 38.6796 29.0731 38.5455C28.8778 38.4114 28.7115 38.2389 28.5848 38.0387L28.579 38.0289L28.5721 38.0191L28.3114 37.6598C26.984 35.8851 25.2724 34.4307 23.3026 33.4068C21.2014 32.3147 18.8679 31.7447 16.4999 31.7447C14.1319 31.7447 11.7983 32.3147 9.69714 33.4068C7.72737 34.4307 6.01576 35.8851 4.68835 37.6598L4.42859 38.0191L4.42761 38.0201C4.26765 38.2498 4.05386 38.4378 3.80554 38.567C3.61919 38.664 3.41731 38.726 3.20984 38.7506L3.00183 38.7623H2.99792C2.68402 38.7632 2.37671 38.6782 2.10925 38.5172L1.99695 38.443L1.995 38.442L1.85828 38.3346C1.55451 38.0715 1.34853 37.7105 1.27917 37.3111C1.19996 36.8546 1.30587 36.3856 1.57214 36.0064L1.57117 36.0055C3.44896 33.3365 6.00823 31.22 8.98132 29.8746L9.70398 29.5475L9.09656 29.0357C7.29172 27.5173 5.99686 25.4806 5.38855 23.2018C4.81828 21.0652 4.87716 18.8126 5.55261 16.7135L5.69617 16.2955C6.50434 14.0797 7.9746 12.1663 9.9071 10.8141C11.8397 9.46174 14.1411 8.73595 16.4999 8.73593ZM28.538 8.6998L28.6659 9.1832L28.6747 9.18124C29.5585 8.92964 30.4692 8.78698 31.3866 8.75644L31.7802 8.7496H31.7831C33.9956 8.74325 36.1596 9.37647 38.0165 10.568L38.3837 10.8141C40.3196 12.1642 41.7923 14.0783 42.6014 16.2955C43.4105 18.5126 43.5164 20.9251 42.9052 23.2047C42.2939 25.4844 40.9953 27.5208 39.1854 29.0357L38.5751 29.5465L39.2997 29.8746C42.087 31.136 44.5102 33.0755 46.3495 35.5123L46.7098 36.0064L46.7118 36.0094C46.8452 36.196 46.94 36.4077 46.9911 36.6314C47.0421 36.8551 47.0489 37.0871 47.0096 37.3131C46.9704 37.539 46.886 37.7546 46.7626 37.9478C46.6699 38.093 46.5563 38.2233 46.4257 38.3346L46.2899 38.4391L46.2841 38.443C45.992 38.6517 45.642 38.7624 45.2831 38.7613C45.0026 38.7595 44.7262 38.6926 44.4774 38.5631C44.2906 38.4658 44.1238 38.3356 43.9833 38.1803L43.8514 38.0172C42.4881 36.0832 40.6809 34.5042 38.5809 33.4137C36.6119 32.3912 34.4393 31.8263 32.2255 31.7574L31.7821 31.7496H31.7811C31.3171 31.7496 30.872 31.5659 30.5438 31.2379C30.2156 30.9097 30.0311 30.4637 30.0311 29.9996C30.0312 29.5356 30.2157 29.0904 30.5438 28.7623C30.872 28.4342 31.3171 28.2496 31.7811 28.2496C33.9029 28.2496 35.9381 27.4071 37.4384 25.9068C38.9386 24.4066 39.7811 22.3713 39.7811 20.2496C39.781 18.2606 39.0405 16.3479 37.7118 14.8805L37.4384 14.5934C35.9381 13.0931 33.9029 12.2496 31.7811 12.2496C31.1413 12.2485 30.5041 12.3263 29.8837 12.4801L29.619 12.5504L29.6132 12.5523C29.3908 12.6186 29.1574 12.6396 28.9266 12.6148C28.6959 12.5901 28.4727 12.5197 28.2694 12.4078C28.0661 12.2959 27.8864 12.1452 27.7421 11.9635C27.5978 11.7817 27.4915 11.5726 27.4286 11.3492C27.3657 11.1258 27.3476 10.8921 27.3759 10.6617C27.4042 10.4314 27.4785 10.209 27.5936 10.0074C27.7087 9.80588 27.8627 9.62932 28.0468 9.48788C28.2307 9.34652 28.4407 9.24259 28.6649 9.1832L28.538 8.6998ZM18.0604 12.4039C16.5087 12.0953 14.9001 12.2535 13.4384 12.859C11.9767 13.4644 10.7275 14.4898 9.84851 15.8053C8.96953 17.1207 8.49996 18.6675 8.49988 20.2496C8.49988 22.3712 9.34252 24.4066 10.8427 25.9068C12.3429 27.4071 14.3782 28.2496 16.4999 28.2496C18.082 28.2496 19.6287 27.7809 20.9442 26.9019C22.2598 26.0229 23.286 24.7729 23.8915 23.3111C24.4968 21.8494 24.6552 20.2407 24.3466 18.6891C24.0379 17.1374 23.2758 15.7121 22.1571 14.5934C21.1083 13.5446 19.7897 12.8096 18.3505 12.4674L18.0604 12.4039Z" stroke="#4CAF4F"/>
</g>
</g>
<defs>
<filter id="filter0_d_16_1460" x="-3.24622" y="8.23593" width="54.7811" height="39.1173" filterUnits="userSpaceOnUse" color-interpolation-filters="sRGB">
<feFlood flood-opacity="0" result="BackgroundImageFix"/>
<feColorMatrix in="SourceAlpha" type="matrix" values="0 0 0 0 0 0 0 0 0 0 0 0 0 0 0 0 0 0 127 0" result="hardAlpha"/>
<feOffset dy="4"/>
<feGaussianBlur stdDeviation="2"/>
<feComposite in2="hardAlpha" operator="out"/>
<feColorMatrix type="matrix" values="0 0 0 0 0 0 0 0 0 0 0 0 0 0 0 0 0 0 0.25 0"/>
<feBlend mode="normal" in2="BackgroundImageFix" result="effect1_dropShadow_16_1460"/>
<feBlend mode="normal" in="SourceGraphic" in2="effect1_dropShadow_16_1460" result="shape"/>
</filter>
<clipPath id="clip0_16_1460">
<rect width="48" height="48" fill="white"/>
</clipPath>
</defs>
</svg>
